<svg width="160.000000" height="90.000000" viewBox="0 0 160 90" fill="none" xmlns="http://www.w3.org/2000/svg" xmlns:xlink="http://www.w3.org/1999/xlink">
	<desc>
			Created with Pixso.
	</desc>
	<defs>
		<clipPath id="clip134_647">
			<rect id="Airbnb Logo" width="96.941177" height="30.000000" transform="translate(31.500000 30.000000)" fill="white" fill-opacity="0"/>
		</clipPath>
		<clipPath id="clip134_645">
			<rect id="Airbnb Logo" width="160.000000" height="90.000000" transform="translate(-0.500000 0.000000)" fill="white" fill-opacity="0"/>
		</clipPath>
	</defs>
	<g clip-path="url(#clip134_645)">
		<rect id="BG" x="-0.500000" rx="16.000000" width="160.000000" height="90.000000" fill="#FFFFFF" fill-opacity="1.000000"/>
		<rect id="Airbnb Logo" width="96.941177" height="30.000000" transform="translate(31.500000 30.000000)" fill="#FFFFFF" fill-opacity="0"/>
		<g clip-path="url(#clip134_647)">
			<path id="Vector" d="M59.28 51.26C59.13 50.89 58.99 50.51 58.84 50.18L58.13 48.61L58.11 48.58C56.01 44.08 53.78 39.51 51.41 35.01L51.32 34.82C51.08 34.38 50.84 33.89 50.6 33.44C50.29 32.91 50 32.34 49.51 31.79C49.04 31.23 48.45 30.77 47.77 30.45C47.1 30.14 46.36 29.97 45.62 29.97C44.87 29.97 44.14 30.14 43.46 30.45C42.79 30.77 42.19 31.23 41.72 31.79C41.27 32.34 40.94 32.91 40.64 33.44C40.4 33.93 40.16 34.41 39.91 34.85L39.82 35.04C37.49 39.54 35.22 44.11 33.13 48.61L33.07 48.67C32.86 49.16 32.62 49.66 32.38 50.21C32.23 50.53 32.07 50.89 31.92 51.28C31.51 52.32 31.38 53.43 31.54 54.53C31.7 55.63 32.15 56.66 32.84 57.54C33.53 58.41 34.44 59.09 35.48 59.51C36.52 59.93 37.65 60.08 38.76 59.94C39.83 59.8 40.86 59.45 41.79 58.91C43.02 58.22 44.21 57.23 45.54 55.79C46.87 57.23 48.09 58.22 49.3 58.92C50.46 59.59 51.77 59.96 53.12 59.99C54.67 60 56.18 59.45 57.36 58.45C58.54 57.44 59.31 56.05 59.53 54.53C59.79 53.44 59.7 52.29 59.28 51.25L59.28 51.26ZM45.64 52.81C44 50.75 42.94 48.86 42.58 47.23C42.43 46.63 42.39 46.01 42.48 45.4C42.55 44.92 42.73 44.5 42.98 44.14C43.55 43.33 44.54 42.82 45.64 42.82C46.16 42.8 46.67 42.92 47.13 43.14C47.6 43.37 48 43.71 48.3 44.13C48.54 44.51 48.73 44.92 48.78 45.4C48.88 45.94 48.84 46.57 48.69 47.23C48.33 48.83 47.26 50.74 45.64 52.81ZM57.74 54.2C57.64 54.97 57.33 55.7 56.84 56.32C56.36 56.94 55.72 57.42 54.99 57.72C54.27 58.02 53.47 58.1 52.69 58.02C51.93 57.92 51.17 57.68 50.39 57.23C49.09 56.44 47.93 55.46 46.94 54.32C48.93 51.88 50.14 49.66 50.6 47.68C50.82 46.75 50.84 45.9 50.75 45.13C50.63 44.39 50.35 43.68 49.93 43.06C49.45 42.39 48.81 41.84 48.07 41.47C47.32 41.1 46.5 40.91 45.66 40.93C43.91 40.93 42.34 41.73 41.39 43.05C40.96 43.67 40.68 44.38 40.58 45.13C40.46 45.91 40.49 46.78 40.73 47.68C41.19 49.66 42.42 51.91 44.39 54.34C43.42 55.5 42.25 56.49 40.94 57.27C40.15 57.72 39.4 57.95 38.64 58.04C37.46 58.19 36.26 57.88 35.32 57.16C34.37 56.45 33.75 55.39 33.58 54.23C33.49 53.48 33.56 52.73 33.86 51.88C33.96 51.58 34.1 51.28 34.25 50.93C34.46 50.44 34.71 49.93 34.94 49.43L34.98 49.36C37.04 44.89 39.28 40.33 41.61 35.85L41.7 35.67C41.94 35.22 42.18 34.74 42.42 34.29C42.67 33.81 42.94 33.35 43.28 32.98C43.58 32.63 43.95 32.35 44.36 32.15C44.78 31.96 45.24 31.86 45.7 31.86C46.16 31.86 46.61 31.96 47.03 32.15C47.45 32.35 47.82 32.63 48.12 32.98C48.45 33.35 48.73 33.81 48.97 34.29C49.21 34.74 49.45 35.23 49.69 35.67L49.79 35.85C52.11 40.33 54.35 44.89 56.44 49.36L56.47 49.39C56.72 49.88 56.93 50.42 57.16 50.89C57.32 51.26 57.47 51.55 57.56 51.86C57.74 52.7 57.84 53.45 57.74 54.2ZM70.97 52.61C70.26 52.62 69.55 52.47 68.9 52.17C68.25 51.87 67.67 51.44 67.22 50.89C66.2 49.73 65.65 48.23 65.7 46.69C65.68 45.12 66.24 43.59 67.28 42.4C67.75 41.84 68.35 41.4 69.02 41.1C69.69 40.8 70.42 40.65 71.15 40.65C71.85 40.63 72.53 40.79 73.15 41.11C73.76 41.42 74.29 41.88 74.67 42.45L74.77 40.98L77.54 40.98L77.54 52.31L74.76 52.31L74.66 50.66C74.27 51.26 73.72 51.76 73.07 52.1C72.43 52.45 71.71 52.62 70.97 52.61ZM71.7 49.91C72.25 49.91 72.73 49.76 73.19 49.48C73.61 49.18 73.95 48.79 74.21 48.31C74.45 47.83 74.58 47.26 74.58 46.63C74.61 46.07 74.5 45.52 74.26 45.02C74.01 44.52 73.64 44.09 73.18 43.78C72.73 43.5 72.22 43.36 71.7 43.36C71.17 43.36 70.66 43.5 70.21 43.78C69.8 44.08 69.45 44.47 69.19 44.95C68.94 45.47 68.81 46.05 68.83 46.63C68.79 47.19 68.9 47.74 69.14 48.24C69.39 48.74 69.76 49.17 70.22 49.48C70.67 49.76 71.15 49.91 71.7 49.91ZM82.29 37.93C82.29 38.25 82.24 38.55 82.08 38.8C81.93 39.03 81.72 39.25 81.45 39.4C81.17 39.55 80.88 39.6 80.57 39.6C80.27 39.6 79.96 39.55 79.69 39.4C79.43 39.25 79.21 39.05 79.05 38.8C78.91 38.53 78.83 38.23 78.84 37.93C78.84 37.59 78.91 37.29 79.05 37.05C79.2 36.77 79.42 36.6 79.69 36.45C79.96 36.3 80.26 36.24 80.57 36.24C80.88 36.23 81.17 36.3 81.44 36.44C81.71 36.58 81.93 36.79 82.09 37.04C82.23 37.32 82.3 37.62 82.29 37.93ZM79.06 52.27L79.06 40.96L82.08 40.96L82.08 52.29L79.05 52.29L79.06 52.27ZM90.16 43.93L90.16 43.96C90.02 43.9 89.83 43.87 89.69 43.84C89.5 43.8 89.35 43.8 89.16 43.8C88.32 43.8 87.68 44.05 87.26 44.55C86.81 45.07 86.6 45.79 86.6 46.72L86.6 52.28L83.57 52.28L83.57 40.95L86.35 40.95L86.45 42.67C86.75 42.07 87.11 41.62 87.62 41.28C88.14 40.95 88.74 40.79 89.35 40.81C89.56 40.81 89.77 40.83 89.95 40.87C90.05 40.9 90.11 40.9 90.16 40.93L90.16 43.93ZM91.38 52.27L91.38 36.31L94.4 36.31L94.4 42.41C94.83 41.86 95.31 41.44 95.92 41.11C96.89 40.65 97.98 40.52 99.03 40.74C100.08 40.96 101.02 41.53 101.7 42.34C102.73 43.51 103.27 45.01 103.22 46.55C103.24 48.12 102.68 49.65 101.64 50.84C101.17 51.4 100.57 51.84 99.9 52.14C99.23 52.44 98.5 52.59 97.77 52.59C97.07 52.61 96.39 52.45 95.77 52.14C95.16 51.82 94.63 51.36 94.25 50.79L94.15 52.26L91.38 52.29L91.38 52.27ZM97.22 49.91C97.77 49.91 98.25 49.76 98.71 49.48C99.12 49.18 99.47 48.79 99.73 48.31C99.98 47.83 100.09 47.26 100.09 46.63C100.09 46 99.98 45.43 99.73 44.95C99.48 44.49 99.13 44.09 98.71 43.78C98.26 43.5 97.75 43.36 97.22 43.36C96.7 43.36 96.19 43.5 95.74 43.78C95.31 44.08 94.98 44.47 94.71 44.95C94.45 45.47 94.33 46.05 94.34 46.63C94.31 47.19 94.42 47.74 94.66 48.24C94.91 48.74 95.28 49.17 95.74 49.48C96.19 49.76 96.67 49.91 97.22 49.91ZM104.36 52.28L104.36 40.95L107.15 40.95L107.24 42.43C107.59 41.86 108.09 41.4 108.68 41.09C109.27 40.78 109.94 40.63 110.61 40.65C111.37 40.64 112.13 40.85 112.77 41.26C113.42 41.66 113.93 42.25 114.24 42.94C114.57 43.65 114.75 44.53 114.75 45.52L114.75 52.31L111.72 52.31L111.72 45.91C111.72 45.13 111.54 44.51 111.18 44.05C110.82 43.6 110.32 43.35 109.69 43.35C109.24 43.35 108.84 43.45 108.49 43.65C108.15 43.87 107.88 44.14 107.67 44.53C107.46 44.91 107.35 45.35 107.37 45.79L107.37 52.28L104.36 52.28ZM116.26 52.28L116.26 36.3L119.29 36.3L119.29 42.4C119.7 41.85 120.24 41.41 120.85 41.1C121.47 40.79 122.15 40.63 122.84 40.63C123.55 40.62 124.26 40.76 124.91 41.06C125.56 41.36 126.14 41.8 126.59 42.34C127.61 43.51 128.15 45 128.1 46.54C128.12 48.11 127.56 49.64 126.53 50.83C126.05 51.39 125.45 51.83 124.78 52.13C124.11 52.43 123.38 52.59 122.65 52.58C121.95 52.6 121.27 52.44 120.65 52.13C120.04 51.81 119.51 51.35 119.13 50.78L119.05 52.25L116.26 52.28ZM122.13 49.91C122.69 49.91 123.17 49.76 123.62 49.48C124.04 49.18 124.38 48.79 124.65 48.31C124.89 47.83 125.01 47.26 125.01 46.63C125.05 46.07 124.94 45.52 124.7 45.02C124.45 44.52 124.08 44.09 123.62 43.78C123.17 43.5 122.66 43.36 122.13 43.36C121.61 43.36 121.1 43.5 120.65 43.78C120.23 44.08 119.89 44.47 119.63 44.95C119.36 45.47 119.24 46.05 119.26 46.63C119.23 47.19 119.34 47.74 119.58 48.24C119.83 48.74 120.2 49.17 120.66 49.48C121.11 49.76 121.56 49.91 122.13 49.91Z" fill="#FF385C" fill-opacity="1.000000" fill-rule="nonzero"/>
		</g>
	</g>
</svg>
