<svg width="160.000000" height="90.000000" viewBox="0 0 160 90" fill="none" xmlns="http://www.w3.org/2000/svg" xmlns:xlink="http://www.w3.org/1999/xlink">
	<desc>
			Created with Pixso.
	</desc>
	<defs>
		<clipPath id="clip134_651">
			<rect id="Amazon Logo" width="96.941177" height="30.000000" transform="translate(31.500000 30.000000)" fill="white" fill-opacity="0"/>
		</clipPath>
		<clipPath id="clip134_649">
			<rect id="Amazon Logo" width="160.000000" height="90.000000" transform="translate(-0.500000 0.000000)" fill="white" fill-opacity="0"/>
		</clipPath>
	</defs>
	<g clip-path="url(#clip134_649)">
		<rect id="BG" x="-0.500000" rx="16.000000" width="160.000000" height="90.000000" fill="#FFFFFF" fill-opacity="1.000000"/>
		<rect id="Amazon Logo" width="96.941177" height="30.000000" transform="translate(31.500000 30.000000)" fill="#FFFFFF" fill-opacity="0"/>
		<g clip-path="url(#clip134_651)">
			<path id="path8" d="M91.64 53.46C86 57.72 77.84 59.99 70.81 59.99C60.95 59.99 52.07 56.25 45.36 50.02C44.83 49.53 45.31 48.87 45.94 49.25C53.18 53.58 62.14 56.18 71.4 56.18C77.64 56.18 84.5 54.86 90.82 52.1C91.77 51.69 92.57 52.75 91.64 53.46Z" fill="#FF9900" fill-opacity="1.000000" fill-rule="evenodd"/>
			<path id="path10" d="M93.98 50.7C93.26 49.76 89.22 50.26 87.4 50.48C86.85 50.55 86.77 50.05 87.26 49.7C90.48 47.37 95.77 48.04 96.38 48.82C97 49.61 96.22 55.05 93.2 57.64C92.73 58.04 92.29 57.83 92.5 57.3C93.18 55.56 94.7 51.65 93.98 50.7Z" fill="#FF9900" fill-opacity="1.000000" fill-rule="evenodd"/>
			<path id="path12" d="M87.53 33.27L87.53 31.01C87.53 30.67 87.78 30.44 88.09 30.44L97.95 30.44C98.27 30.44 98.52 30.67 98.52 31.01L98.52 32.95C98.51 33.27 98.25 33.7 97.78 34.37L92.67 41.86C94.56 41.81 96.57 42.1 98.29 43.1C98.68 43.32 98.78 43.65 98.81 43.98L98.81 46.39C98.81 46.72 98.46 47.11 98.09 46.91C95.05 45.27 91.02 45.1 87.67 46.93C87.33 47.12 86.97 46.73 86.97 46.41L86.97 44.11C86.97 43.74 86.97 43.12 87.33 42.56L93.25 33.84L88.1 33.84C87.78 33.84 87.53 33.61 87.53 33.27Z" fill="#1D1E25" fill-opacity="1.000000" fill-rule="evenodd"/>
			<path id="path14" d="M51.56 47.39L48.56 47.39C48.27 47.36 48.04 47.14 48.02 46.86L48.02 31.05C48.02 30.73 48.28 30.48 48.6 30.48L51.4 30.48C51.69 30.49 51.92 30.72 51.94 31.01L51.94 33.08L51.99 33.08C52.72 31.08 54.1 30.15 55.94 30.15C57.82 30.15 59 31.08 59.84 33.08C60.56 31.08 62.21 30.15 63.98 30.15C65.24 30.15 66.62 30.68 67.46 31.88C68.41 33.21 68.21 35.14 68.21 36.83L68.21 46.81C68.21 47.13 67.95 47.39 67.63 47.39L64.63 47.39C64.33 47.36 64.09 47.12 64.09 46.81L64.09 38.43C64.09 37.77 64.15 36.1 64.01 35.47C63.78 34.41 63.11 34.11 62.24 34.11C61.52 34.11 60.76 34.61 60.45 35.4C60.14 36.2 60.17 37.54 60.17 38.43L60.17 46.81C60.17 47.13 59.91 47.39 59.59 47.39L56.6 47.39C56.29 47.36 56.06 47.12 56.06 46.81L56.05 38.43C56.05 36.67 56.34 34.07 54.21 34.07C52.05 34.07 52.13 36.6 52.13 38.43L52.13 46.81C52.13 47.13 51.88 47.39 51.56 47.39Z" fill="#1D1E25" fill-opacity="1.000000" fill-rule="evenodd"/>
			<path id="path16" d="M107.01 30.15C111.46 30.15 113.87 34.07 113.87 39.07C113.87 43.89 111.21 47.71 107.01 47.71C102.64 47.71 100.26 43.79 100.26 38.9C100.26 33.97 102.67 30.15 107.01 30.15ZM107.03 33.38C104.82 33.38 104.68 36.47 104.68 38.4C104.68 40.33 104.65 44.46 107.01 44.46C109.33 44.46 109.44 41.13 109.44 39.1C109.44 37.77 109.39 36.17 109 34.9C108.66 33.8 107.99 33.38 107.03 33.38Z" fill="#1D1E25" fill-opacity="1.000000" fill-rule="evenodd"/>
			<path id="path18" d="M119.64 47.39L116.66 47.39C116.36 47.36 116.12 47.12 116.12 46.81L116.11 31C116.14 30.71 116.39 30.48 116.69 30.48L119.47 30.48C119.73 30.49 119.95 30.68 120.01 30.92L120.01 33.34L120.06 33.34C120.9 31.18 122.08 30.15 124.15 30.15C125.5 30.15 126.81 30.65 127.65 32.01C128.44 33.28 128.44 35.4 128.44 36.93L128.44 46.89C128.4 47.16 128.15 47.39 127.86 47.39L124.85 47.39C124.58 47.36 124.35 47.16 124.32 46.89L124.32 38.3C124.32 36.57 124.51 34.04 122.44 34.04C121.71 34.04 121.04 34.54 120.71 35.3C120.28 36.27 120.23 37.23 120.23 38.3L120.23 46.81C120.22 47.13 119.96 47.39 119.64 47.39Z" fill="#1D1E25" fill-opacity="1.000000" fill-rule="evenodd"/>
			<path id="path28" d="M79.67 39.83C79.67 41.03 79.7 42.03 79.11 43.1C78.63 43.97 77.87 44.5 77.03 44.5C75.88 44.5 75.2 43.6 75.2 42.27C75.2 39.64 77.5 39.16 79.67 39.16L79.67 39.83ZM82.69 47.34C82.5 47.52 82.21 47.54 81.98 47.42C80.99 46.57 80.81 46.17 80.26 45.36C78.62 47.09 77.45 47.6 75.32 47.6C72.79 47.6 70.83 46 70.83 42.8C70.83 40.3 72.14 38.6 74.03 37.76C75.66 37.03 77.93 36.9 79.67 36.69L79.67 36.3C79.67 35.56 79.72 34.7 79.3 34.06C78.94 33.5 78.24 33.26 77.62 33.26C76.47 33.26 75.46 33.86 75.21 35.11C75.16 35.39 74.96 35.66 74.68 35.68L71.78 35.36C71.53 35.3 71.26 35.1 71.33 34.71C72 31.09 75.19 30 78.04 30C79.5 30 81.41 30.39 82.56 31.53C84.02 32.93 83.88 34.8 83.88 36.83L83.88 41.63C83.88 43.07 84.46 43.71 85.01 44.49C85.2 44.76 85.24 45.1 85 45.3C84.39 45.83 83.3 46.8 82.7 47.35L82.69 47.34Z" fill="#1D1E25" fill-opacity="1.000000" fill-rule="evenodd"/>
			<path id="path30" d="M40.34 39.83C40.34 41.03 40.37 42.03 39.77 43.1C39.3 43.97 38.54 44.5 37.7 44.5C36.55 44.5 35.88 43.6 35.88 42.27C35.88 39.64 38.17 39.16 40.34 39.16L40.34 39.83ZM43.36 47.34C43.16 47.52 42.88 47.54 42.65 47.42C41.66 46.57 41.48 46.17 40.93 45.36C39.28 47.09 38.12 47.6 35.98 47.6C33.46 47.6 31.5 46 31.5 42.8C31.5 40.3 32.82 38.6 34.69 37.76C36.32 37.03 38.6 36.9 40.34 36.69L40.34 36.3C40.34 35.56 40.39 34.7 39.97 34.06C39.61 33.5 38.91 33.26 38.29 33.26C37.15 33.26 36.12 33.86 35.88 35.11C35.82 35.39 35.63 35.66 35.36 35.68L32.44 35.36C32.2 35.3 31.93 35.1 32 34.71C32.67 31.09 35.85 30 38.71 30C40.17 30 42.07 30.39 43.23 31.53C44.69 32.93 44.55 34.8 44.55 36.83L44.55 41.63C44.55 43.07 45.13 43.71 45.68 44.49C45.87 44.76 45.91 45.1 45.67 45.3C45.06 45.83 43.97 46.8 43.37 47.35L43.36 47.34Z" fill="#1D1E25" fill-opacity="1.000000" fill-rule="evenodd"/>
		</g>
	</g>
</svg>
