<svg width="17.487305" height="17.487549" viewBox="0 0 17.4873 17.4875" fill="none" xmlns="http://www.w3.org/2000/svg" xmlns:xlink="http://www.w3.org/1999/xlink">
	<desc>
			Created with Pixso.
	</desc>
	<defs/>
	<path id="Vector" d="M3.64307 7.28662C2.84131 7.28662 2.18555 7.94238 2.18555 8.7439C2.18555 9.54541 2.84131 10.2012 3.64307 10.2012C4.44434 10.2012 5.1001 9.54541 5.1001 8.7439C5.1001 7.94238 4.44434 7.28662 3.64307 7.28662Z" fill="#7E8492" fill-opacity="1.000000" fill-rule="nonzero"/>
	<path id="Vector" d="M13.8442 7.28662C13.0425 7.28662 12.3867 7.94238 12.3867 8.7439C12.3867 9.54541 13.0425 10.2012 13.8442 10.2012C14.6455 10.2012 15.3013 9.54541 15.3013 8.7439C15.3013 7.94238 14.6455 7.28662 13.8442 7.28662Z" fill="#7E8492" fill-opacity="1.000000" fill-rule="nonzero"/>
	<path id="Vector" d="M8.74365 7.28662C7.94189 7.28662 7.28613 7.94238 7.28613 8.7439C7.28613 9.54541 7.94189 10.2012 8.74365 10.2012C9.54492 10.2012 10.2007 9.54541 10.2007 8.7439C10.2007 7.94238 9.54492 7.28662 8.74365 7.28662Z" fill="#7E8492" fill-opacity="1.000000" fill-rule="nonzero"/>
	<g opacity="0.000000">
		<path id="Vector" d="M0 0L17.4873 0L17.4873 17.4875L0 17.4875L0 0Z" fill="#7E8492" fill-opacity="1.000000" fill-rule="evenodd"/>
	</g>
</svg>
