<svg width="160.000000" height="90.000000" viewBox="0 0 160 90" fill="none" xmlns="http://www.w3.org/2000/svg" xmlns:xlink="http://www.w3.org/1999/xlink">
	<desc>
			Created with Pixso.
	</desc>
	<defs>
		<clipPath id="clip134_662">
			<rect id="FedEx Logo" width="94.117645" height="28.125000" transform="translate(32.441406 30.937500)" fill="white" fill-opacity="0"/>
		</clipPath>
		<clipPath id="clip134_660">
			<rect id="FedEx Logo" width="160.000000" height="90.000000" transform="translate(-0.500000 0.000000)" fill="white" fill-opacity="0"/>
		</clipPath>
	</defs>
	<g clip-path="url(#clip134_660)">
		<rect id="BG" x="-0.500000" rx="16.000000" width="160.000000" height="90.000000" fill="#FFFFFF" fill-opacity="1.000000"/>
		<rect id="FedEx Logo" width="94.117645" height="28.125000" transform="translate(32.441406 30.937500)" fill="#FFFFFF" fill-opacity="0"/>
		<g clip-path="url(#clip134_662)">
			<path id="polygon19" d="M102.43 58.22L110.28 49.56L102.43 40.9L110.71 40.9L114.6 45.1L118.34 40.9L126.33 40.9L118.52 49.52L126.44 58.22L118.12 58.22L114.27 53.97L110.45 58.22L102.43 58.22Z" fill="#FF6600" fill-opacity="1.000000" fill-rule="nonzero"/>
			<path id="polygon21" d="M102.43 37.01L93.54 37.01L93.54 40.9L102.43 40.9L102.43 46.75L93.54 46.75L93.54 52.12L102.43 52.12L102.43 58.22L87 58.22L87 30.93L102.43 30.93L102.43 37.01Z" fill="#FF6600" fill-opacity="1.000000" fill-rule="nonzero"/>
			<path id="path23" d="M80.5 30.93L80.5 42.1L80.42 42.1C78.98 40.47 77.18 39.91 75.1 39.91C70.82 39.91 67.6 42.76 66.47 46.54C65.18 42.38 61.85 39.83 56.92 39.83C52.91 39.83 49.75 41.6 48.1 44.47L48.1 40.9L39.82 40.9L39.82 37.01L48.85 37.01L48.85 30.93L32.44 30.93L32.44 58.22L39.82 58.22L39.82 46.75L47.17 46.75C46.95 47.59 46.84 48.49 46.84 49.44C46.84 55.13 51.27 59.13 56.92 59.13C61.67 59.13 64.8 56.94 66.46 52.94L60.13 52.94C59.28 54.14 58.63 54.5 56.92 54.5C54.93 54.5 53.22 52.8 53.22 50.79L66.1 50.79C66.66 55.31 70.25 59.21 75.17 59.21C77.29 59.21 79.24 58.18 80.42 56.45L80.5 56.45L80.5 58.22L87 58.22L87 30.93L80.5 30.93ZM53.43 46.83C53.84 45.1 55.21 43.96 56.92 43.96C58.8 43.96 60.1 45.06 60.44 46.83C60.58 46.83 53.43 46.83 53.43 46.83ZM76.55 54.06C74.15 54.06 72.66 51.87 72.66 49.58C72.66 47.13 73.96 44.77 76.55 44.77C79.24 44.77 80.31 47.13 80.31 49.58C80.31 51.9 79.17 54.06 76.55 54.06Z" fill="#652C8F" fill-opacity="1.000000" fill-rule="nonzero"/>
		</g>
	</g>
</svg>
