<svg width="160.000000" height="90.000000" viewBox="0 0 160 90" fill="none" xmlns="http://www.w3.org/2000/svg" xmlns:xlink="http://www.w3.org/1999/xlink">
	<desc>
			Created with Pixso.
	</desc>
	<defs>
		<clipPath id="clip134_679">
			<rect id="Google Logo" width="89.411758" height="30.000000" transform="translate(35.264648 30.000000)" fill="white" fill-opacity="0"/>
		</clipPath>
		<clipPath id="clip134_677">
			<rect id="Google Logo" width="160.000000" height="90.000000" transform="translate(-0.500000 0.000000)" fill="white" fill-opacity="0"/>
		</clipPath>
	</defs>
	<g clip-path="url(#clip134_677)">
		<rect id="BG" x="-0.500000" rx="16.000000" width="160.000000" height="90.000000" fill="#FFFFFF" fill-opacity="1.000000"/>
		<rect id="Google Logo" width="89.411758" height="30.000000" transform="translate(35.264648 30.000000)" fill="#FFFFFF" fill-opacity="0"/>
		<g clip-path="url(#clip134_679)">
			<path id="Vector" d="M73.31 45.38C73.31 49.54 70.03 52.61 66 52.61C61.96 52.61 58.68 49.54 58.68 45.38C58.68 41.19 61.96 38.15 66 38.15C70.03 38.15 73.31 41.19 73.31 45.38ZM70.11 45.38C70.11 42.78 68.2 41 66 41C63.79 41 61.88 42.78 61.88 45.38C61.88 47.96 63.79 49.76 66 49.76C68.2 49.76 70.11 47.95 70.11 45.38Z" fill="#EA4335" fill-opacity="1.000000" fill-rule="nonzero"/>
			<path id="Vector" d="M89.09 45.38C89.09 49.54 85.8 52.61 81.77 52.61C77.74 52.61 74.46 49.54 74.46 45.38C74.46 41.19 77.74 38.15 81.77 38.15C85.8 38.15 89.09 41.19 89.09 45.38ZM85.89 45.38C85.89 42.78 83.98 41 81.77 41C79.56 41 77.66 42.78 77.66 45.38C77.66 47.96 79.56 49.76 81.77 49.76C83.98 49.76 85.89 47.95 85.89 45.38Z" fill="#FBBC05" fill-opacity="1.000000" fill-rule="nonzero"/>
			<path id="Vector" d="M104.21 38.58L104.21 51.57C104.21 56.91 101.03 59.09 97.28 59.09C93.75 59.09 91.62 56.75 90.82 54.83L93.6 53.68C94.1 54.86 95.32 56.25 97.28 56.25C99.68 56.25 101.17 54.77 101.17 52.01L101.17 50.97L101.06 50.97C100.34 51.84 98.96 52.61 97.22 52.61C93.57 52.61 90.23 49.46 90.23 45.41C90.23 41.32 93.57 38.15 97.22 38.15C98.96 38.15 100.34 38.91 101.06 39.76L101.17 39.76L101.17 38.59L104.21 38.59L104.21 38.58ZM101.4 45.41C101.4 42.86 99.68 41 97.5 41C95.29 41 93.44 42.86 93.44 45.41C93.44 47.93 95.29 49.76 97.5 49.76C99.68 49.76 101.4 47.93 101.4 45.41Z" fill="#4285F4" fill-opacity="1.000000" fill-rule="nonzero"/>
			<path id="Vector" d="M109.22 30.97L109.22 52.17L106.1 52.17L106.1 30.97L109.22 30.97Z" fill="#34A853" fill-opacity="1.000000" fill-rule="nonzero"/>
			<path id="Vector" d="M121.39 47.76L123.88 49.4C123.07 50.58 121.14 52.61 117.8 52.61C113.66 52.61 110.57 49.43 110.57 45.38C110.57 41.08 113.69 38.14 117.44 38.14C121.23 38.14 123.08 41.13 123.68 42.75L124.01 43.57L114.27 47.57C115.01 49.02 116.17 49.76 117.8 49.76C119.43 49.76 120.56 48.97 121.39 47.76ZM113.74 45.16L120.26 42.47C119.9 41.57 118.82 40.94 117.55 40.94C115.92 40.94 113.66 42.37 113.74 45.16Z" fill="#EA4335" fill-opacity="1.000000" fill-rule="nonzero"/>
			<path id="Vector" d="M46.86 43.5L46.86 40.43L57.28 40.43C57.39 40.96 57.44 41.6 57.44 42.28C57.44 44.58 56.8 47.43 54.76 49.46C52.77 51.51 50.23 52.61 46.86 52.61C40.62 52.61 35.38 47.57 35.38 41.38C35.38 35.19 40.62 30.15 46.86 30.15C50.32 30.15 52.77 31.49 54.62 33.24L52.44 35.41C51.11 34.18 49.32 33.22 46.86 33.22C42.3 33.22 38.74 36.86 38.74 41.38C38.74 45.9 42.3 49.54 46.86 49.54C49.82 49.54 51.5 48.36 52.58 47.29C53.45 46.43 54.03 45.19 54.25 43.5L46.86 43.5Z" fill="#4285F4" fill-opacity="1.000000" fill-rule="nonzero"/>
		</g>
	</g>
</svg>
