<svg width="40.000000" height="40.000000" viewBox="0 0 40 40" fill="none" xmlns="http://www.w3.org/2000/svg" xmlns:xlink="http://www.w3.org/1999/xlink">
	<desc>
			Created with Pixso.
	</desc>
	<defs>
		<clipPath id="clip195_981">
			<rect id="Icon" width="40.000000" height="40.000000" fill="white" fill-opacity="0"/>
		</clipPath>
	</defs>
	<g clip-path="url(#clip195_981)">
		<path id="Icon" d="M33.3335 10C28.2109 10 23.5381 8.07422 20 4.90723C16.4614 8.0741 11.7891 9.99976 6.6665 9.99976C6.32129 9.99976 5.97803 9.99097 5.63672 9.97375C5.22119 11.5797 5 13.264 5 15C5 24.3192 11.374 32.1497 20 34.3699C28.626 32.1497 35 24.3192 35 15C35 13.2642 34.7788 11.5798 34.3633 9.97388C34.022 9.99121 33.6787 10 33.3335 10ZM15 20L18.3335 23.3334L25 16.6666" stroke="#FFFFFF" stroke-opacity="1.000000" stroke-width="3.000000" stroke-linejoin="round" stroke-linecap="round"/>
	</g>
</svg>
