<svg width="40.000000" height="40.000000" viewBox="0 0 40 40" fill="none" xmlns="http://www.w3.org/2000/svg" xmlns:xlink="http://www.w3.org/1999/xlink">
	<desc>
			Created with Pixso.
	</desc>
	<defs>
		<clipPath id="clip195_1010">
			<rect id="Icon" width="40.000000" height="40.000000" fill="white" fill-opacity="0"/>
		</clipPath>
	</defs>
	<g clip-path="url(#clip195_1010)">
		<path id="Icon" d="M25 8.33337L28.3335 8.33337C30.1743 8.33337 31.667 9.82568 31.667 11.6666L31.667 31.6666C31.667 33.5076 30.1743 35 28.3335 35L11.667 35C9.82568 35 8.3335 33.5076 8.3335 31.6666L8.3335 11.6666C8.3335 9.82568 9.82568 8.33337 11.667 8.33337L15 8.33337M15 23.3334L18.3335 26.6666L25 20M21.667 5C23.5078 5 25 6.49243 25 8.33337C25 10.1743 23.5078 11.6666 21.667 11.6666L18.3335 11.6666C16.4927 11.6666 15 10.1743 15 8.33337C15 6.49243 16.4927 5 18.3335 5L21.667 5Z" stroke="#FFFFFF" stroke-opacity="1.000000" stroke-width="3.000000" stroke-linecap="round"/>
	</g>
</svg>
