<svg width="140.000000" height="66.000000" viewBox="0 0 140 66" fill="none" xmlns="http://www.w3.org/2000/svg" xmlns:xlink="http://www.w3.org/1999/xlink">
	<desc>
			Created with Pixso.
	</desc>
	<defs/>
	<path id="coca" d="M72.7222 38.3558L68.1455 35.9848Q67.9932 36.1478 67.8286 36.297L67.8281 36.2972Q67.2275 36.8407 66.4604 37.2002C65.8086 37.4924 65.1221 37.6385 64.4009 37.6385Q63.4521 37.6385 62.6206 37.3267Q62.1392 37.1463 61.6968 36.8615Q61.1743 36.5251 60.7456 36.0953Q60.1841 35.5324 59.7832 34.8093Q59.4658 34.2284 59.291 33.6073L59.291 33.6073Q59.0757 32.8439 59.0757 32.0199C59.0757 31.0104 59.3115 30.0807 59.7832 29.2306Q60.2173 28.4355 60.8394 27.8358L60.8398 27.8357Q61.231 27.4584 61.6968 27.1584Q62.1724 26.8443 62.6934 26.654L62.6934 26.654Q63.4937 26.3615 64.4009 26.3615C65.0947 26.3615 65.7671 26.5076 66.4189 26.7998C67.0845 27.092 67.6602 27.5038 68.1455 28.0351L72.7222 25.6841Q72.1636 24.94 71.4951 24.3135L71.4946 24.3132Q70.4448 23.3294 69.123 22.6357Q68.4731 22.2943 67.7871 22.0556L67.7866 22.0555Q66.1904 21.5 64.4009 21.5Q62.8306 21.5 61.394 21.939L61.394 21.939Q60.8706 22.0988 60.3657 22.3169Q59.3037 22.7751 58.3857 23.434L58.3853 23.4342Q57.667 23.9498 57.0371 24.5882Q56.6377 24.9934 56.2861 25.4368L56.2861 25.4368L56.2861 25.4368Q55.3936 26.563 54.8115 27.9355Q54.7109 28.1696 54.623 28.4083L54.623 28.4084L54.623 28.4085L54.623 28.4085Q54 30.0995 54 32.0199Q54 33.9177 54.6016 35.6005L54.6016 35.6005L54.6016 35.6006Q54.9155 36.4795 55.3936 37.2998Q56.1387 38.5483 57.1431 39.5317L57.1436 39.5322Q58.0464 40.4159 59.1592 41.0854C60.7397 42.0285 62.4873 42.5 64.4009 42.5C66.1069 42.5 67.6812 42.1215 69.123 41.3643C70.5654 40.6072 71.7651 39.6044 72.7222 38.3558ZM79.7173 41.0854C81.2983 42.0285 83.0459 42.5 84.9595 42.5C86.4019 42.5 87.7471 42.2277 88.9951 41.6831C90.2573 41.1385 91.3599 40.3881 92.3027 39.4317C93.2598 38.462 94.0088 37.3463 94.5493 36.0844C95.0903 34.8226 95.3608 33.4677 95.3608 32.0199C95.3608 30.0807 94.8892 28.3141 93.9463 26.7201Q93.2368 25.5035 92.2744 24.5396L92.2744 24.5395Q91.3457 23.6093 90.1812 22.9146Q89.3765 22.4304 88.5107 22.1118L88.5083 22.1111L88.5083 22.111Q86.8462 21.5 84.9595 21.5C83.5312 21.5 82.186 21.7723 80.9238 22.3169C79.6621 22.8615 78.5522 23.6186 77.5957 24.5882C76.6523 25.5446 75.9106 26.6603 75.3696 27.9355Q75.2695 28.1696 75.1816 28.4083L75.1812 28.4085Q74.5586 30.0995 74.5586 32.0199C74.5586 33.9459 75.0229 35.7059 75.9521 37.2998Q76.6973 38.5487 77.7021 39.5322L77.7021 39.5323Q78.605 40.4159 79.7173 41.0854ZM111.578 35.9848L116.155 38.3558C115.198 39.6044 113.999 40.6072 112.556 41.3643C111.114 42.1215 109.54 42.5 107.834 42.5C105.92 42.5 104.173 42.0285 102.592 41.0854C101.024 40.1423 99.7695 38.8805 98.8267 37.2998C97.8975 35.7059 97.4326 33.9459 97.4326 32.0199C97.4326 30.5588 97.7031 29.1974 98.2441 27.9355C98.7852 26.6603 99.5269 25.5446 100.47 24.5882C101.427 23.6186 102.536 22.8615 103.798 22.3169Q104.304 22.0989 104.827 21.939L104.827 21.939L104.827 21.939Q106.263 21.5 107.834 21.5C109.54 21.5 111.114 21.8786 112.556 22.6357C113.999 23.3928 115.198 24.4089 116.155 25.6841L111.578 28.0351C111.093 27.5038 110.518 27.092 109.852 26.7998C109.2 26.5076 108.527 26.3615 107.834 26.3615C106.835 26.3615 105.934 26.6271 105.129 27.1584C104.325 27.6765 103.688 28.3672 103.216 29.2306C102.744 30.0807 102.508 31.0104 102.508 32.0199C102.508 33.0161 102.744 33.9459 103.216 34.8093C103.688 35.6594 104.325 36.3434 105.129 36.8615C105.934 37.3795 106.835 37.6385 107.834 37.6385C108.555 37.6385 109.242 37.4924 109.894 37.2002C110.545 36.8947 111.107 36.4896 111.578 35.9848ZM140 22.0579L134.924 22.0579L135.153 24.6082C134.39 23.7049 133.461 22.9611 132.366 22.3766Q132.265 22.3221 132.162 22.2708Q130.615 21.5 128.684 21.5C127.2 21.5 125.813 21.7657 124.523 22.297C123.233 22.8283 122.096 23.5655 121.111 24.5085C120.127 25.4516 119.357 26.5474 118.803 27.796C118.262 29.0446 117.991 30.3795 117.991 31.8008Q117.991 33.4951 118.492 35.0257Q118.645 35.493 118.844 35.945C119.427 37.2334 120.224 38.3691 121.236 39.352C122.263 40.3349 123.448 41.1053 124.793 41.6632C126.139 42.2211 127.581 42.5 129.121 42.5C130.396 42.5 131.499 42.2277 132.428 41.6831C133.371 41.1252 134.127 40.4013 134.695 39.5114L134.924 41.982L140 41.982L140 22.0579ZM131.866 37.0408C131.034 37.5588 130.077 37.8178 128.996 37.8178C127.941 37.8178 126.971 37.5588 126.083 37.0408C125.209 36.5228 124.509 35.8254 123.982 34.9488Q123.726 34.5218 123.552 34.0634Q123.192 33.1098 123.192 32.0199Q123.192 30.8781 123.577 29.8859Q123.736 29.4757 123.961 29.0911C124.488 28.2144 125.189 27.5171 126.062 26.9991C126.95 26.4677 127.928 26.2021 128.996 26.2021C130.063 26.2021 131.014 26.4611 131.846 26.9791C132.691 27.4972 133.35 28.2011 133.822 29.0911C134.293 29.9677 134.529 30.944 134.529 32.0199C134.529 33.0826 134.293 34.0588 133.822 34.9488C133.35 35.8254 132.698 36.5228 131.866 37.0408ZM87.6846 36.8615Q87.2935 37.1134 86.8696 37.2836Q85.9858 37.6385 84.9595 37.6385C84.0024 37.6385 83.1152 37.3928 82.2969 36.9013C81.4927 36.3966 80.8477 35.7192 80.3623 34.8691Q80.187 34.5623 80.0542 34.2383Q79.6343 33.2153 79.6343 32.0199Q79.6343 31.1036 79.8931 30.2676L79.8936 30.2671Q80.0625 29.7218 80.3413 29.2106C80.813 28.3473 81.4512 27.6566 82.2554 27.1385C83.0596 26.6205 83.9609 26.3615 84.9595 26.3615C85.9302 26.3615 86.8179 26.6205 87.6221 27.1385C88.4404 27.6432 89.0854 28.3273 89.5566 29.1907C90.0425 30.0408 90.2852 30.9839 90.2852 32.0199C90.2852 33.0294 90.0493 33.9592 89.5776 34.8093Q89.2095 35.4933 88.6914 36.0339L88.6914 36.034Q88.2441 36.5013 87.6846 36.8615Z" fill="#101010" fill-opacity="1.000000" fill-rule="evenodd"/>
	<circle id="Ellipse 1" cx="21.000000" cy="30.500000" r="21.000000" fill="#101010" fill-opacity="1.000000"/>
	<path id="c" d="M27.4482 35.4412L32 37.741C30.8906 39.1831 29.4795 40.3368 27.7666 41.2021C26.0698 42.0674 24.2261 42.5 22.2358 42.5C19.9844 42.5 17.9287 41.9611 16.0688 40.8833C14.2256 39.8055 12.749 38.3634 11.6396 36.5569C10.5464 34.7353 10 32.7239 10 30.5228C10 28.8529 10.3184 27.297 10.9546 25.8548C11.5908 24.3975 12.4634 23.1224 13.5728 22.0294C14.6987 20.9213 16.0039 20.056 17.4883 19.4336C18.9731 18.8112 20.5557 18.5 22.2358 18.5C24.2261 18.5 26.0698 18.9326 27.7666 19.7979C29.4795 20.6632 30.8906 21.8245 32 23.2818L27.4482 25.5816C26.7632 24.8226 25.9639 24.2457 25.0503 23.851C24.1362 23.4412 23.1982 23.2362 22.2358 23.2362C20.8979 23.2362 19.6826 23.5778 18.5894 24.2609C17.5127 24.9288 16.6562 25.8169 16.02 26.925C15.3999 28.018 15.0903 29.2173 15.0903 30.5228C15.0903 31.8131 15.4082 33.0123 16.0444 34.1205C16.6807 35.2135 17.5371 36.0939 18.6143 36.7619C19.707 37.4298 20.9146 37.7638 22.2358 37.7638C23.2471 37.7638 24.21 37.5512 25.1235 37.1262C26.0371 36.7011 26.812 36.1395 27.4482 35.4412Z" fill="#FFFFFF" fill-opacity="1.000000" fill-rule="nonzero"/>
</svg>
