<svg width="160.000000" height="90.000000" viewBox="0 0 160 90" fill="none" xmlns="http://www.w3.org/2000/svg" xmlns:xlink="http://www.w3.org/1999/xlink">
	<desc>
			Created with Pixso.
	</desc>
	<defs>
		<clipPath id="clip134_670">
			<rect id="Microsoft Logo" width="114.823540" height="24.375000" transform="translate(22.088379 32.812500)" fill="white" fill-opacity="0"/>
		</clipPath>
		<clipPath id="clip134_668">
			<rect id="Microsoft Logo" width="160.000000" height="90.000000" transform="translate(-0.500000 0.000000)" fill="white" fill-opacity="0"/>
		</clipPath>
	</defs>
	<g clip-path="url(#clip134_668)">
		<rect id="BG" x="-0.500000" rx="16.000000" width="160.000000" height="90.000000" fill="#FFFFFF" fill-opacity="1.000000"/>
		<rect id="Microsoft Logo" width="114.823540" height="24.375000" transform="translate(22.088379 32.812500)" fill="#FFFFFF" fill-opacity="0"/>
		<g clip-path="url(#clip134_670)">
			<path id="Vector" d="M62.61 46.85L61.93 48.77L61.87 48.77C61.76 48.34 61.55 47.68 61.21 46.88L57.54 37.72L53.94 37.72L53.94 52.33L56.32 52.33L56.32 43.31C56.32 42.75 56.32 42.1 56.3 41.31C56.28 40.91 56.25 40.61 56.23 40.38L56.28 40.38C56.4 40.95 56.53 41.37 56.63 41.63L61.04 52.29L62.71 52.29L67.08 41.54C67.18 41.29 67.27 40.8 67.37 40.38L67.42 40.38C67.37 41.46 67.33 42.43 67.31 43.01L67.31 52.27L69.84 52.27L69.84 37.68L66.38 37.68L62.61 46.85ZM72.23 41.8L74.7 41.8L74.7 52.27L72.23 52.27L72.23 41.8ZM73.49 37.38C73.07 37.38 72.73 37.53 72.44 37.8C72.16 38.06 72 38.4 72 38.82C72 39.21 72.16 39.55 72.44 39.82C72.73 40.08 73.07 40.21 73.49 40.21C73.91 40.21 74.27 40.06 74.53 39.82C74.82 39.55 74.97 39.21 74.97 38.82C74.97 38.42 74.82 38.08 74.53 37.8C74.29 37.53 73.92 37.38 73.49 37.38ZM83.47 41.71C83.01 41.61 82.54 41.56 82.08 41.56C80.96 41.56 79.93 41.8 79.08 42.29C78.22 42.78 77.54 43.46 77.1 44.31C76.64 45.18 76.41 46.19 76.41 47.34C76.41 48.34 76.64 49.23 77.08 50.04C77.52 50.83 78.13 51.48 78.94 51.91C79.72 52.35 80.64 52.57 81.66 52.57C82.84 52.57 83.85 52.33 84.65 51.87L84.67 51.85L84.67 49.59L84.57 49.66C84.21 49.93 83.79 50.15 83.37 50.29C82.94 50.44 82.54 50.51 82.19 50.51C81.21 50.51 80.43 50.23 79.87 49.61C79.3 49 79.02 48.17 79.02 47.13C79.02 46.05 79.3 45.2 79.89 44.58C80.48 43.96 81.26 43.63 82.21 43.63C83.01 43.63 83.83 43.9 84.57 44.43L84.67 44.5L84.67 42.1L84.65 42.09C84.32 41.95 83.96 41.8 83.47 41.71ZM91.62 41.63C91.02 41.63 90.44 41.82 89.95 42.22C89.53 42.56 89.25 43.05 89 43.63L88.98 43.63L88.98 41.8L86.51 41.8L86.51 52.27L88.98 52.27L88.98 46.92C88.98 46.02 89.17 45.26 89.59 44.71C90.01 44.14 90.54 43.86 91.19 43.86C91.41 43.86 91.64 43.92 91.93 43.96C92.19 44.03 92.38 44.11 92.52 44.2L92.61 44.28L92.61 41.82L92.56 41.8C92.38 41.69 92.04 41.63 91.62 41.63ZM98.35 41.57C96.62 41.57 95.24 42.09 94.27 43.09C93.28 44.09 92.8 45.47 92.8 47.21C92.8 48.83 93.3 50.15 94.25 51.12C95.2 52.06 96.49 52.55 98.11 52.55C99.8 52.55 101.15 52.04 102.12 51.02C103.11 50 103.58 48.64 103.58 46.96C103.58 45.3 103.13 43.97 102.19 43.01C101.3 42.05 99.99 41.57 98.35 41.57ZM100.33 49.62C99.87 50.21 99.15 50.49 98.26 50.49C97.36 50.49 96.64 50.21 96.13 49.59C95.62 49 95.37 48.15 95.37 47.07C95.37 45.96 95.63 45.11 96.13 44.5C96.64 43.9 97.35 43.6 98.24 43.6C99.11 43.6 99.8 43.88 100.29 44.47C100.79 45.05 101.05 45.9 101.05 47.02C101.02 48.15 100.81 49.04 100.33 49.62ZM109.09 46.15C108.32 45.83 107.82 45.58 107.59 45.37C107.4 45.18 107.31 44.92 107.31 44.58C107.31 44.3 107.42 44.01 107.71 43.82C107.99 43.63 108.32 43.54 108.79 43.54C109.21 43.54 109.65 43.62 110.06 43.73C110.48 43.84 110.86 44.01 111.17 44.24L111.26 44.31L111.26 42.01L111.2 41.99C110.92 41.88 110.54 41.76 110.08 41.67C109.63 41.59 109.21 41.56 108.87 41.56C107.69 41.56 106.72 41.84 105.96 42.46C105.2 43.05 104.84 43.84 104.84 44.77C104.84 45.26 104.91 45.69 105.08 46.05C105.25 46.41 105.5 46.75 105.84 47.04C106.19 47.3 106.68 47.6 107.36 47.89C107.93 48.13 108.37 48.32 108.64 48.47C108.9 48.62 109.08 48.79 109.21 48.93C109.3 49.08 109.36 49.27 109.36 49.51C109.36 50.21 108.83 50.55 107.75 50.55C107.33 50.55 106.89 50.47 106.38 50.3C105.86 50.13 105.39 49.89 104.99 49.61L104.89 49.53L104.89 51.93L104.95 51.95C105.31 52.12 105.75 52.23 106.28 52.36C106.81 52.46 107.29 52.53 107.71 52.53C108.98 52.53 110.03 52.25 110.77 51.63C111.53 51.02 111.93 50.25 111.93 49.25C111.93 48.55 111.74 47.92 111.32 47.45C110.77 47 110.08 46.53 109.09 46.15ZM118.45 41.57C116.72 41.57 115.33 42.09 114.36 43.09C113.39 44.09 112.9 45.47 112.9 47.21C112.9 48.83 113.39 50.15 114.34 51.12C115.29 52.06 116.58 52.55 118.2 52.55C119.89 52.55 121.24 52.04 122.21 51.02C123.2 50 123.68 48.64 123.68 46.96C123.68 45.3 123.22 43.97 122.29 43.01C121.39 42.05 120.08 41.57 118.45 41.57ZM120.41 49.62C119.95 50.21 119.23 50.49 118.33 50.49C117.42 50.49 116.72 50.21 116.2 49.59C115.69 49 115.44 48.15 115.44 47.07C115.44 45.96 115.71 45.11 116.2 44.5C116.72 43.9 117.42 43.6 118.31 43.6C119.17 43.6 119.87 43.88 120.37 44.47C120.86 45.05 121.13 45.9 121.13 47.02C121.13 48.15 120.88 49.04 120.41 49.62ZM136.89 43.82L136.89 41.8L134.4 41.8L134.4 38.7L134.32 38.72L131.96 39.42L131.91 39.44L131.91 41.8L128.18 41.8L128.18 40.48C128.18 39.87 128.33 39.4 128.6 39.1C128.87 38.8 129.27 38.65 129.76 38.65C130.1 38.65 130.46 38.72 130.86 38.89L130.96 38.95L130.96 36.81L130.9 36.79C130.56 36.68 130.1 36.61 129.51 36.61C128.77 36.61 128.12 36.78 127.54 37.06C126.95 37.38 126.51 37.81 126.18 38.4C125.86 38.97 125.69 39.61 125.69 40.35L125.69 41.8L123.96 41.8L123.96 43.8L125.69 43.8L125.69 52.27L128.18 52.27L128.18 43.82L131.91 43.82L131.91 49.21C131.91 51.42 132.95 52.53 135.04 52.53C135.39 52.53 135.75 52.48 136.09 52.42C136.45 52.35 136.72 52.25 136.87 52.18L136.89 52.16L136.89 50.13L136.79 50.21C136.64 50.3 136.51 50.38 136.28 50.44C136.09 50.49 135.92 50.51 135.78 50.51C135.29 50.51 134.95 50.4 134.7 50.12C134.47 49.85 134.36 49.42 134.36 48.77L134.36 43.82L136.89 43.82Z" fill="#737373" fill-opacity="1.000000" fill-rule="nonzero"/>
			<path id="Vector" d="M22.08 32.81L33.74 32.81L33.74 44.39L22.08 44.39L22.08 32.81Z" fill="#F25022" fill-opacity="1.000000" fill-rule="nonzero"/>
			<path id="Vector" d="M34.95 32.81L46.61 32.81L46.61 44.39L34.95 44.39L34.95 32.81Z" fill="#7FBA00" fill-opacity="1.000000" fill-rule="nonzero"/>
			<path id="Vector" d="M22.08 45.6L33.74 45.6L33.74 57.18L22.08 57.18L22.08 45.6Z" fill="#00A4EF" fill-opacity="1.000000" fill-rule="nonzero"/>
			<path id="Vector" d="M34.95 45.6L46.61 45.6L46.61 57.18L34.95 57.18L34.95 45.6Z" fill="#FFB900" fill-opacity="1.000000" fill-rule="nonzero"/>
		</g>
	</g>
</svg>
