<svg width="160.000000" height="90.000000" viewBox="0 0 160 90" fill="none" xmlns="http://www.w3.org/2000/svg" xmlns:xlink="http://www.w3.org/1999/xlink">
	<desc>
			Created with Pixso.
	</desc>
	<defs>
		<clipPath id="clip134_688">
			<rect id="OLA logo" width="92.235291" height="31.875000" transform="translate(33.382324 29.062500)" fill="white" fill-opacity="0"/>
		</clipPath>
		<clipPath id="clip134_686">
			<rect id="OLA Logo" width="160.000000" height="90.000000" transform="translate(-0.500000 0.000000)" fill="white" fill-opacity="0"/>
		</clipPath>
	</defs>
	<g clip-path="url(#clip134_686)">
		<rect id="BG" x="-0.500000" rx="16.000000" width="160.000000" height="90.000000" fill="#FFFFFF" fill-opacity="1.000000"/>
		<rect id="OLA logo" width="92.235291" height="31.875000" transform="translate(33.382324 29.062500)" fill="#FFFFFF" fill-opacity="0"/>
		<g clip-path="url(#clip134_688)">
			<path id="Vector" d="M114.67 43.91L108.8 54.07L103.79 54.09L114.67 34.97L125.51 54.09L120.42 54.09L114.67 43.91L114.67 43.91ZM98.87 49.66L104.48 49.66L101.87 54.09L94.56 54.09L94.58 48.7L94.58 35.08L98.89 35.08L98.87 49.66L98.87 49.66ZM83.48 35.09C88.83 35.11 93.16 39.35 93.14 44.59C93.12 49.82 88.79 54.07 83.44 54.07C78.11 54.05 73.78 49.8 73.78 44.56C73.8 39.33 78.13 35.09 83.48 35.09ZM83.46 49.64C86.33 49.64 88.63 47.38 88.63 44.59C88.65 41.81 86.33 39.53 83.48 39.53C80.64 39.51 78.31 41.79 78.31 44.58C78.29 47.36 80.62 49.64 83.46 49.64L83.46 49.64ZM65.81 43.09C65.75 42.3 65.55 41.26 65.25 40.26C64.63 38.19 63.56 36.29 62.11 34.7C61.34 33.87 60.48 33.1 59.2 32.2C58.22 31.72 57.26 31.2 56.32 30.65C55.69 30.29 54.95 29.86 53.97 29.55C52.81 29.27 51.62 29.12 50.43 29.1C49.27 29.06 48.1 29.16 46.98 29.37C45.8 29.57 44.82 29.88 43.51 30.2C40.57 31.47 38.29 33.4 36.32 35.95C29.47 45.56 35.66 59.02 47.1 60.61C48.98 60.87 50.87 60.77 52.65 60.36L53.91 60.02C53.95 60 54.01 59.98 54.05 59.98L55.49 59.43C55.57 59.39 55.63 59.37 55.71 59.33L56.32 59.06C57.47 58.49 58.55 57.78 59.54 56.96C58.64 57.78 57.66 58.51 56.62 59.14L56.68 59.18C56.88 59.12 57.06 59.06 57.26 59.02C57.26 59.02 57.26 59.33 57.22 59.28C56.9 59.51 57.4 59.3 58.04 58.96C58.68 58.63 59.3 58.21 59.86 57.74C60.68 57.05 61.4 56.31 62.43 55.09C63.47 53.26 64.77 51.67 65.37 49.53C65.57 48.96 65.75 48.29 65.87 47.6C65.99 46.92 66.07 46.21 66.07 45.48C66.05 44.76 65.97 44.01 65.81 43.09ZM50.99 59.24C54.49 58.69 57.44 56.74 59.84 54.09C60.5 53.13 61.02 52.24 61.66 51.28C62.47 49.31 62.41 47.57 62.67 46.33C62.99 44.09 62.23 42.28 61.58 40.35C60.6 38.11 59.3 36.44 57.02 35.15C51.25 31.57 43.39 32.57 39.65 37.92C39.63 37.92 39.53 38.06 39.33 38.33C39.59 37.23 40.25 36.58 40.91 35.95C42.87 34.34 45.16 33.06 47.76 32.44C50.71 32.12 53.63 32.44 56.25 33.71C60.18 35.95 62.79 39.47 63.45 43.63L63.45 47.49C62.63 53.79 57.22 58.59 50.99 59.24ZM65.39 44.89C65.25 35.66 56.1 29.43 47.18 30.69C44.58 31.34 41.73 32.63 39.71 34.44C38.73 35.09 38.27 36.29 37.28 37.25C33.36 43.01 34.04 50.37 38.93 54.86C39.55 55.48 40.22 56.06 40.93 56.58C36.84 54.13 35 50.41 34.36 45.9C34.36 44.28 34.68 42.69 35.02 41.08C37.3 34.03 44.5 28.9 52.33 30.2C53.63 30.51 54.93 30.84 56.26 31.16C57.9 31.81 59.52 32.77 60.82 34.05C62.13 35.32 63.11 36.94 64.09 38.53C64.75 39.8 65.07 41.42 65.39 42.69C65.45 43.42 65.45 44.17 65.39 44.89L65.39 44.89Z" fill="#1D1E25" fill-opacity="1.000000" fill-rule="evenodd"/>
			<path id="Vector" d="M57.26 45.03C57.26 49 53.93 52.22 49.83 52.22C45.72 52.22 42.39 49 42.39 45.03C42.39 41.06 45.72 37.84 49.83 37.84C53.93 37.84 57.26 41.06 57.26 45.03L57.26 45.03Z" fill="#FFFFFF" fill-opacity="1.000000" fill-rule="evenodd"/>
			<path id="Vector" d="M57.3 43.81C57.2 43.26 57.04 42.83 56.88 42.22C56.24 40.89 55.29 39.84 54.05 38.96C49.4 35.88 43.01 38.84 42.33 44.11C42.07 46.19 42.81 48.2 44.14 49.73C43.74 49.32 43.3 48.88 42.99 48.39L42.96 48.43C42.99 48.55 43.16 48.63 43.2 48.75C43.2 48.75 43.03 48.75 43.08 48.73C42.96 48.59 43.06 48.81 43.23 49.1C43.4 49.39 43.6 49.67 43.84 49.92C44.18 50.3 44.54 50.63 45.14 51.08C46.02 51.54 46.8 52.13 47.82 52.4C48.1 52.48 48.42 52.56 48.75 52.62C49.09 52.68 49.41 52.7 49.77 52.7C50.11 52.7 50.47 52.66 50.91 52.58C51.36 52.52 51.81 52.43 52.25 52.3C53.23 52.01 54.13 51.5 54.89 50.81C55.28 50.46 55.82 50 56.24 49.41C56.58 48.75 56.62 48.41 56.78 48.12C56.94 47.82 57.14 47.49 57.28 47.04C57.39 46.5 57.46 45.95 57.48 45.41C57.46 44.86 57.42 44.32 57.3 43.81L57.3 43.81ZM52.53 40.16C53.21 40.55 53.31 40.61 52.95 40.36C53.47 40.47 53.79 40.77 54.11 41.06C54.89 41.95 55.53 42.99 55.85 44.19C56.04 45.54 55.89 46.9 55.31 48.1C54.27 49.92 52.61 51.14 50.63 51.48C50.41 51.48 50.17 51.48 49.95 51.5C50.51 51.4 50.87 51.04 51.89 50.67C52.99 50.28 54.23 48.45 54.83 47.39C56.6 44.5 54.51 41.83 52.53 40.16ZM48.76 51.51C45.72 51.2 43.37 48.71 43.05 45.82C43.33 47.43 44.3 48.67 45.6 49.77C46.06 50.06 46.74 50.47 47.2 50.77C47.98 51.06 48.44 51.38 49.2 51.52L48.76 51.52L48.76 51.51ZM56.96 46.27C56.82 46.88 56.68 47.47 56.54 48.08C56.24 48.82 55.8 49.59 55.19 50.2C54.59 50.81 53.83 51.28 53.07 51.73C52.47 52.05 51.71 52.2 51.09 52.36C50.73 52.4 50.31 52.24 49.95 52.22C54.39 52.1 57.44 47.96 56.78 43.85C56.46 42.65 55.82 41.61 55.03 40.57C54.71 40.12 54.09 39.84 53.63 39.39C50.85 37.64 47.16 38 45.06 40.3C44.76 40.6 44.49 40.92 44.24 41.26C45.36 39.61 47.16 38.45 49.32 38.11C50.09 38.1 50.87 38.23 51.63 38.37C54.99 39.39 57.5 42.65 56.96 46.27L56.96 46.27Z" fill="#D7DF23" fill-opacity="1.000000" fill-rule="evenodd"/>
		</g>
	</g>
</svg>
