<svg width="19.000000" height="19.000000" viewBox="0 0 19 19" fill="none" xmlns="http://www.w3.org/2000/svg" xmlns:xlink="http://www.w3.org/1999/xlink">
	<desc>
			Created with Pixso.
	</desc>
	<defs/>
	<path id="Icon" d="M9 18.6C14.3 18.6 18.6 14.3 18.6 9C18.6 3.69 14.3 -0.6 9 -0.6C3.69 -0.6 -0.61 3.69 -0.61 9C-0.61 14.3 3.69 18.6 9 18.6ZM13.44 7.44C13.91 6.97 13.91 6.22 13.44 5.75C12.98 5.28 12.22 5.28 11.75 5.75L7.79 9.7L6.24 8.15C5.77 7.68 5.02 7.68 4.55 8.15C4.08 8.62 4.08 9.37 4.55 9.84L6.95 12.24C7.41 12.71 8.17 12.71 8.64 12.24L13.44 7.44Z" fill="#7E8492" fill-opacity="1.000000" fill-rule="evenodd"/>
</svg>
