<svg width="118.000000" height="32.000000" viewBox="0 0 118 32" fill="none" xmlns="http://www.w3.org/2000/svg" xmlns:xlink="http://www.w3.org/1999/xlink">
	<desc>
			Created with Pixso.
	</desc>
	<defs/>
	<rect id="Best Offers" rx="16.000000" width="118.000000" height="32.000000" fill="#1463FF" fill-opacity="1.000000"/>
	<path id="Best Offers 🔥" d="M59.84 13.36L61.48 13.36L61.48 14.55L59.84 14.55L59.84 21L58.35 21L58.35 14.55L57.17 14.55L57.17 13.36L58.35 13.36L58.35 12.47C58.35 11.04 59.41 10.33 60.61 10.33C61.21 10.33 61.65 10.46 61.86 10.54L61.51 11.74C61.37 11.7 61.15 11.63 60.84 11.63C60.12 11.63 59.84 12 59.84 12.67L59.84 13.36ZM65 13.36L66.65 13.36L66.65 14.55L65 14.55L65 21L63.51 21L63.51 14.55L62.33 14.55L62.33 13.36L63.51 13.36L63.51 12.47C63.51 11.04 64.57 10.33 65.78 10.33C66.38 10.33 66.81 10.46 67.02 10.54L66.67 11.74C66.53 11.7 66.32 11.63 66.01 11.63C65.28 11.63 65 12 65 12.67L65 13.36ZM51.48 10.67C54.11 10.67 56.06 12.65 56.06 15.91C56.06 19.16 54.11 21.14 51.48 21.14C48.83 21.14 46.89 19.16 46.89 15.91C46.89 12.65 48.83 10.67 51.48 10.67ZM17.32 21L13.42 21L13.42 10.81L17.15 10.81C19.31 10.81 20.36 11.98 20.36 13.49C20.36 14.76 19.58 15.4 18.64 15.64L18.64 15.73C19.65 15.79 20.76 16.68 20.76 18.26C20.76 19.82 19.69 21 17.32 21ZM40.18 13.36L41.75 13.36L41.75 14.55L40.18 14.55L40.18 18.75C40.18 19.61 40.61 19.77 41.1 19.77C41.34 19.77 41.52 19.73 41.62 19.71L41.89 20.94C41.71 21 41.39 21.09 40.92 21.09C39.75 21.12 38.69 20.45 38.69 19.06L38.69 14.55L37.58 14.55L37.58 13.36L38.69 13.36L38.69 11.53L40.18 11.53L40.18 13.36ZM51.48 19.73C53.23 19.73 54.54 18.38 54.54 15.91C54.54 13.42 53.23 12.08 51.48 12.08C49.72 12.08 48.41 13.42 48.41 15.91C48.41 18.38 49.72 19.73 51.48 19.73ZM14.96 12.12L14.96 15.22L17.01 15.22C18.04 15.22 18.85 14.59 18.85 13.61C18.85 12.76 18.27 12.12 17.05 12.12L14.96 12.12ZM77.59 21L76.1 21L76.1 13.36L77.54 13.36L77.54 14.57L77.62 14.57C77.89 13.75 78.66 13.24 79.55 13.24C79.75 13.24 80.04 13.26 80.19 13.28L80.19 14.7C80.07 14.66 79.72 14.61 79.41 14.61C78.36 14.61 77.59 15.33 77.59 16.33L77.59 21ZM28.93 19.08C28.59 20.33 27.41 21.15 25.75 21.15C23.49 21.15 22.11 19.6 22.11 17.23C22.11 14.88 23.51 13.26 25.64 13.26C27.37 13.26 29.02 14.34 29.02 17.1L29.02 17.62L23.59 17.62C23.63 19.09 24.49 19.92 25.76 19.92C26.61 19.92 27.25 19.55 27.52 18.83L28.93 19.08ZM33.51 13.26C35.16 13.26 36.09 14.04 36.4 15.22L35.05 15.46C34.88 14.95 34.45 14.44 33.53 14.44C32.68 14.44 32.05 14.86 32.05 15.44C32.05 15.96 32.41 16.24 33.25 16.44L34.46 16.72C35.86 17.04 36.55 17.71 36.55 18.79C36.55 20.17 35.27 21.15 33.43 21.15C31.71 21.15 30.59 20.39 30.34 19.04L31.78 18.82C31.96 19.57 32.53 19.95 33.42 19.95C34.39 19.95 35.03 19.49 35.03 18.9C35.03 18.42 34.68 18.09 33.95 17.93L32.65 17.65C31.22 17.33 30.57 16.61 30.57 15.52C30.57 14.17 31.79 13.26 33.51 13.26ZM74.35 19.08C74.01 20.33 72.83 21.15 71.17 21.15C68.91 21.15 67.53 19.6 67.53 17.23C67.53 14.88 68.94 13.26 71.06 13.26C72.79 13.26 74.44 14.34 74.44 17.1L74.44 17.62L69.01 17.62C69.05 19.09 69.91 19.92 71.18 19.92C72.03 19.92 72.67 19.55 72.94 18.83L74.35 19.08ZM84.31 13.26C85.96 13.26 86.89 14.04 87.2 15.22L85.85 15.46C85.68 14.95 85.25 14.44 84.33 14.44C83.48 14.44 82.85 14.86 82.85 15.44C82.85 15.96 83.21 16.24 84.05 16.44L85.26 16.72C86.66 17.04 87.35 17.71 87.35 18.79C87.35 20.17 86.07 21.15 84.23 21.15C82.51 21.15 81.39 20.39 81.14 19.04L82.58 18.82C82.76 19.57 83.33 19.95 84.22 19.95C85.19 19.95 85.83 19.49 85.83 18.9C85.83 18.42 85.48 18.09 84.75 17.93L83.45 17.65C82.02 17.33 81.37 16.61 81.37 15.52C81.37 14.17 82.59 13.26 84.31 13.26ZM25.65 14.49C24.44 14.49 23.66 15.43 23.6 16.51L27.57 16.51C27.56 15.34 26.81 14.49 25.65 14.49ZM71.07 14.49C69.86 14.49 69.08 15.43 69.02 16.51L72.99 16.51C72.98 15.34 72.23 14.49 71.07 14.49ZM14.96 16.41L14.96 19.68L17.17 19.68C18.65 19.68 19.23 19.04 19.23 18.18C19.23 17.21 18.46 16.41 17.22 16.41L14.96 16.41Z" fill="#FFFFFF" fill-opacity="1.000000" fill-rule="evenodd"/>
</svg>
