<svg width="32.000000" height="32.000000" viewBox="0 0 32 32" fill="none" xmlns="http://www.w3.org/2000/svg" xmlns:xlink="http://www.w3.org/1999/xlink">
	<desc>
			Created with Pixso.
	</desc>
	<defs/>
	<rect id="Social Icons" width="32.000000" height="32.000000" fill="#FFFFFF" fill-opacity="0"/>
	<g opacity="0.100000">
		<path id="BG" d="M0 16C0 7.16 7.16 0 16 0C24.83 0 32 7.16 32 16C32 24.83 24.83 32 16 32C7.16 32 0 24.83 0 16Z" fill="#1D1E25" fill-opacity="1.000000" fill-rule="evenodd"/>
	</g>
	<path id="Path" d="M11.54 9.88C11.52 8.81 10.75 8 9.51 8C8.27 8 7.46 8.81 7.46 9.88C7.46 10.92 8.25 11.76 9.47 11.76L9.49 11.76C10.75 11.76 11.54 10.92 11.54 9.88ZM24.38 17.89C24.38 14.55 22.59 12.99 20.2 12.99C18.28 12.99 17.42 14.05 16.94 14.79L16.94 13.25L13.31 13.25C13.36 14.27 13.31 24.14 13.31 24.14L16.94 24.14L16.94 18.06C16.94 17.73 16.96 17.41 17.05 17.17C17.32 16.52 17.91 15.85 18.92 15.85C20.23 15.85 20.75 16.85 20.75 18.31L20.75 24.14L24.38 24.14L24.38 17.89ZM11.3 13.25L7.68 13.25L7.68 24.14L11.3 24.14L11.3 13.25Z" fill="#1D1E25" fill-opacity="1.000000" fill-rule="evenodd"/>
</svg>
