<svg width="32.000000" height="32.000000" viewBox="0 0 32 32" fill="none" xmlns="http://www.w3.org/2000/svg" xmlns:xlink="http://www.w3.org/1999/xlink">
	<desc>
			Created with Pixso.
	</desc>
	<defs/>
	<rect id="Social Icons" width="32.000000" height="32.000000" transform="translate(0.000000 -0.999756)" fill="#FFFFFF" fill-opacity="0"/>
	<g opacity="0.100000">
		<path id="BG" d="M0 15C0 6.16 7.16 -1 16 -1C24.83 -1 32 6.16 32 15C32 23.83 24.83 31 16 31C7.16 31 0 23.83 0 15Z" fill="#161A34" fill-opacity="1.000000" fill-rule="evenodd"/>
	</g>
	<path id="Path" d="M11.54 8.88C11.52 7.81 10.75 7 9.51 7C8.27 7 7.46 7.81 7.46 8.88C7.46 9.92 8.25 10.76 9.47 10.76L9.49 10.76C10.75 10.76 11.54 9.92 11.54 8.88ZM24.38 16.9C24.38 13.55 22.59 11.99 20.2 11.99C18.28 11.99 17.42 13.05 16.94 13.79L16.94 12.25L13.31 12.25C13.36 13.27 13.31 23.14 13.31 23.14L16.94 23.14L16.94 17.06C16.94 16.73 16.96 16.41 17.06 16.17C17.32 15.52 17.91 14.85 18.92 14.85C20.23 14.85 20.75 15.85 20.75 17.31L20.75 23.14L24.38 23.14L24.38 16.9ZM11.3 12.25L7.68 12.25L7.68 23.14L11.3 23.14L11.3 12.25Z" fill="#161A34" fill-opacity="1.000000" fill-rule="evenodd"/>
</svg>
