<svg width="32.000000" height="32.000000" viewBox="0 0 32 32" fill="none" xmlns="http://www.w3.org/2000/svg" xmlns:xlink="http://www.w3.org/1999/xlink">
	<desc>
			Created with Pixso.
	</desc>
	<defs/>
	<rect id="Social Icons" width="32.000000" height="32.000000" transform="translate(0.000000 -0.999756)" fill="#FFFFFF" fill-opacity="0"/>
	<g opacity="0.100000">
		<path id="BG" d="M0 15C0 6.16 7.16 -1 16 -1C24.83 -1 32 6.16 32 15C32 23.83 24.83 31 16 31C7.16 31 0 23.83 0 15Z" fill="#161A34" fill-opacity="1.000000" fill-rule="evenodd"/>
	</g>
	<path id="Path" d="M15.52 12L15.55 12.55L14.99 12.49C12.95 12.23 11.17 11.34 9.66 9.86L8.92 9.13L8.73 9.67C8.33 10.88 8.59 12.16 9.43 13.02C9.88 13.49 9.77 13.56 9 13.28C8.73 13.19 8.5 13.12 8.48 13.15C8.4 13.23 8.67 14.26 8.88 14.67C9.17 15.23 9.76 15.79 10.41 16.11L10.96 16.37L10.31 16.38C9.68 16.38 9.66 16.4 9.73 16.63C9.95 17.37 10.84 18.15 11.82 18.49L12.52 18.72L11.91 19.08C11.02 19.6 9.96 19.9 8.91 19.92C8.41 19.93 8 19.98 8 20.01C8 20.12 9.36 20.76 10.16 21.01C12.54 21.74 15.37 21.42 17.5 20.17C19.01 19.28 20.52 17.5 21.22 15.79C21.6 14.87 21.98 13.2 21.98 12.4C21.98 11.88 22.02 11.81 22.64 11.19C23.01 10.83 23.36 10.43 23.43 10.32C23.54 10.1 23.53 10.1 22.96 10.29C22.01 10.63 21.87 10.59 22.34 10.08C22.69 9.72 23.1 9.06 23.1 8.87C23.1 8.84 22.94 8.89 22.75 8.99C22.54 9.11 22.1 9.28 21.76 9.38L21.16 9.57L20.61 9.2C20.31 8.99 19.88 8.77 19.66 8.7C19.09 8.54 18.21 8.57 17.7 8.75C16.3 9.25 15.41 10.57 15.52 12Z" fill="#161A34" fill-opacity="1.000000" fill-rule="evenodd"/>
</svg>
