<svg width="32.000000" height="32.000000" viewBox="0 0 32 32" fill="none" xmlns="http://www.w3.org/2000/svg" xmlns:xlink="http://www.w3.org/1999/xlink">
	<desc>
			Created with Pixso.
	</desc>
	<defs/>
	<rect id="Social Icons" width="32.000000" height="32.000000" transform="translate(0.000000 -0.999756)" fill="#FFFFFF" fill-opacity="0"/>
	<g opacity="0.100000">
		<path id="BG" d="M0 15C0 6.16 7.16 -1 16 -1C24.83 -1 32 6.16 32 15C32 23.83 24.83 31 16 31C7.16 31 0 23.83 0 15Z" fill="#161A34" fill-opacity="1.000000" fill-rule="evenodd"/>
	</g>
	<path id="Path" d="M16 6.46C13.68 6.46 13.39 6.47 12.48 6.51C11.57 6.56 10.95 6.7 10.41 6.91C9.85 7.13 9.37 7.42 8.89 7.89C8.42 8.37 8.13 8.84 7.91 9.41C7.7 9.95 7.55 10.57 7.51 11.48C7.47 12.39 7.46 12.68 7.46 15C7.46 17.31 7.47 17.6 7.51 18.51C7.56 19.42 7.7 20.04 7.91 20.58C8.13 21.15 8.42 21.62 8.89 22.1C9.37 22.57 9.84 22.86 10.41 23.08C10.95 23.29 11.57 23.44 12.48 23.48C13.39 23.52 13.68 23.53 16 23.53C18.31 23.53 18.6 23.52 19.51 23.48C20.42 23.44 21.04 23.29 21.58 23.08C22.15 22.86 22.62 22.57 23.1 22.1C23.57 21.62 23.86 21.15 24.08 20.58C24.29 20.04 24.43 19.42 24.48 18.51C24.52 17.6 24.53 17.31 24.53 15C24.53 12.68 24.52 12.39 24.48 11.48C24.43 10.57 24.29 9.95 24.08 9.41C23.86 8.84 23.57 8.37 23.1 7.89C22.62 7.42 22.15 7.13 21.58 6.91C21.04 6.7 20.42 6.56 19.51 6.51C18.6 6.47 18.31 6.46 15.99 6.46L16 6.46ZM15.23 8C15.46 8 15.71 8 16 8C18.27 8 18.54 8.01 19.44 8.05C20.28 8.09 20.73 8.23 21.03 8.34C21.43 8.5 21.71 8.68 22.01 8.98C22.31 9.28 22.49 9.56 22.65 9.96C22.76 10.26 22.9 10.71 22.94 11.55C22.98 12.45 22.99 12.72 22.99 14.99C22.99 17.27 22.98 17.54 22.94 18.44C22.9 19.27 22.76 19.72 22.65 20.02C22.49 20.42 22.31 20.71 22.01 21C21.71 21.3 21.43 21.49 21.03 21.64C20.73 21.76 20.28 21.9 19.44 21.94C18.54 21.98 18.27 21.99 16 21.99C13.72 21.99 13.45 21.98 12.55 21.94C11.72 21.9 11.26 21.76 10.96 21.64C10.56 21.49 10.28 21.3 9.98 21C9.68 20.71 9.5 20.42 9.34 20.02C9.23 19.72 9.09 19.27 9.05 18.44C9.01 17.54 9 17.27 9 14.99C9 12.71 9.01 12.44 9.05 11.54C9.09 10.71 9.23 10.26 9.34 9.96C9.5 9.56 9.68 9.28 9.98 8.98C10.28 8.68 10.56 8.49 10.96 8.34C11.26 8.22 11.72 8.08 12.55 8.05C13.33 8.01 13.64 8 15.23 8L15.23 8ZM20.55 9.42C19.99 9.42 19.53 9.87 19.53 10.44C19.53 11.01 19.99 11.46 20.55 11.46C21.12 11.46 21.58 11.01 21.58 10.44C21.58 9.87 21.12 9.42 20.55 9.42ZM16 10.61C13.58 10.61 11.61 12.58 11.61 15C11.61 17.42 13.58 19.38 16 19.38C18.42 19.38 20.38 17.42 20.38 15C20.38 12.58 18.42 10.61 16 10.61ZM16 12.15C17.57 12.15 18.84 13.42 18.84 15C18.84 16.57 17.57 17.84 16 17.84C14.42 17.84 13.15 16.57 13.15 15C13.15 13.42 14.42 12.15 16 12.15Z" fill="#161A34" fill-opacity="1.000000" fill-rule="evenodd"/>
</svg>
