<svg width="160.000000" height="90.000000" viewBox="0 0 160 90" fill="none" xmlns="http://www.w3.org/2000/svg" xmlns:xlink="http://www.w3.org/1999/xlink">
	<desc>
			Created with Pixso.
	</desc>
	<defs>
		<clipPath id="clip134_695">
			<rect id="Walmart Logo" width="112.941170" height="26.250000" transform="translate(23.029297 31.875000)" fill="white" fill-opacity="0"/>
		</clipPath>
		<clipPath id="clip134_693">
			<rect id="Walmart Logo" width="160.000000" height="90.000000" transform="translate(-0.500000 0.000000)" fill="white" fill-opacity="0"/>
		</clipPath>
	</defs>
	<g clip-path="url(#clip134_693)">
		<rect id="BG" x="-0.500000" rx="16.000000" width="160.000000" height="90.000000" fill="#FFFFFF" fill-opacity="1.000000"/>
		<rect id="Walmart Logo" width="112.941170" height="26.250000" transform="translate(23.029297 31.875000)" fill="#FFFFFF" fill-opacity="0"/>
		<g clip-path="url(#clip134_695)">
			<path id="Shape" d="M63.22 41.21L63.22 42.69L63.26 42.69C63.8 41.9 64.7 40.96 66.68 40.96C68.23 40.96 69.41 41.74 69.92 42.92L69.97 42.92C70.4 42.32 70.9 41.87 71.45 41.55C72.11 41.17 72.85 40.96 73.77 40.96C75.86 40.96 77.71 42.31 77.71 45.71L77.71 52.16L74.52 52.16L74.52 46.16C74.52 44.44 73.9 43.44 72.59 43.44C71.64 43.44 70.94 44.04 70.68 44.77C70.59 45.03 70.54 45.37 70.54 45.66L70.54 52.17L67.36 52.17L67.36 45.92C67.36 44.45 66.75 43.43 65.47 43.43C64.44 43.43 63.79 44.19 63.53 44.84C63.41 45.12 63.38 45.44 63.38 45.74L63.38 52.16L60.19 52.16L60.19 41.21L63.22 41.21ZM94.16 41.21L94.16 43.27L94.25 43.27C94.84 41.69 96.23 40.96 97.45 40.96C97.75 40.96 97.92 40.98 98.17 41.03L98.17 43.9C97.88 43.86 97.61 43.82 97.23 43.82C95.84 43.82 94.88 44.57 94.64 45.75C94.58 45.99 94.57 46.25 94.57 46.56L94.57 52.17L91.29 52.17L91.29 41.21L94.16 41.21ZM102.61 37.58L102.61 41.03L105.38 41.03L105.38 43.82L102.61 43.82L102.61 47.93C102.61 49.27 102.98 49.91 104.06 49.91C104.56 49.91 104.94 49.85 105.26 49.78L105.3 52.09C104.87 52.24 103.95 52.41 103.01 52.41C101.9 52.41 100.98 52.05 100.42 51.49C99.78 50.86 99.49 49.82 99.49 48.34L99.49 37.58L102.61 37.58ZM57.97 52.16L54.79 52.16L54.79 37.58L57.97 37.58L57.97 52.16ZM49.5 48.25C49.5 48.45 49.49 48.66 49.43 48.84C49.18 49.6 48.34 50.24 47.29 50.24C46.41 50.24 45.71 49.78 45.71 48.8C45.71 47.29 47.49 46.87 49.51 46.88L49.51 48.25L49.5 48.25ZM52.67 45.63C52.67 43.14 51.54 40.96 47.7 40.96C45.73 40.96 44.16 41.48 43.31 41.94L43.93 43.93C44.71 43.47 45.96 43.09 47.14 43.09C49.08 43.09 49.4 44.12 49.4 44.78L49.4 44.94C45.15 44.94 42.47 46.31 42.47 49.11C42.47 50.81 43.83 52.41 46.21 52.41C47.67 52.41 48.89 51.87 49.63 51L49.7 51C49.7 51 50.18 52.89 52.86 52.17C52.72 51.38 52.67 50.54 52.67 49.53L52.67 45.63L52.67 45.63ZM26.53 37.58C26.86 39.12 27.79 43.6 27.79 43.6C28.18 45.45 28.54 47.38 28.81 48.9L28.86 48.9C29.12 47.28 29.54 45.75 29.98 43.84L31.55 37.58L35.03 37.58L36.49 44C36.88 45.79 37.18 47.17 37.43 48.83L37.47 48.83C37.74 47.15 38.08 45.72 38.46 43.88L39.87 37.58L43.2 37.58L39.07 52.16C36.44 52.7 35.44 51.71 35.08 50.15C34.72 48.58 34.01 45.59 34.01 45.59C33.65 43.96 33.37 42.8 33.17 41.12L33.12 41.12C32.84 42.79 32.54 43.95 32.1 45.59L30.37 52.17C27.69 52.67 26.75 51.93 26.24 49.92C25.8 48.19 23.02 37.58 23.02 37.58L26.53 37.58L26.53 37.58ZM86.01 48.25C86.01 48.45 85.99 48.66 85.93 48.84C85.68 49.6 84.84 50.24 83.79 50.24C82.91 50.24 82.21 49.78 82.21 48.8C82.21 47.29 83.99 46.87 86.01 46.88L86.01 48.25L86.01 48.25ZM89.18 45.63C89.18 43.14 88.04 40.96 84.2 40.96C82.23 40.96 80.66 41.48 79.81 41.94L80.43 43.93C81.21 43.47 82.46 43.09 83.64 43.09C85.58 43.09 85.9 44.12 85.9 44.78L85.9 44.94C81.66 44.94 78.97 46.31 78.97 49.11C78.97 50.81 80.34 52.41 82.72 52.41C84.18 52.41 85.4 51.87 86.13 51L86.2 51C86.2 51 86.69 52.89 89.36 52.17C89.22 51.38 89.18 50.54 89.18 49.53L89.18 45.63Z" fill="#041E42" fill-opacity="1.000000" fill-rule="nonzero"/>
			<path id="Shape" d="M118.24 47.14C118.55 47.67 118.53 48.27 118.2 48.54L112.43 52.49C111.83 52.83 110.93 52.42 110.42 51.56C109.91 50.69 110 49.73 110.6 49.39L116.99 46.48C117.39 46.33 117.93 46.61 118.24 47.14ZM125.84 47.14C126.15 46.61 126.69 46.33 127.09 46.48L133.48 49.38C134.09 49.72 134.17 50.69 133.66 51.56C133.15 52.42 132.25 52.83 131.65 52.49L125.88 48.53C125.55 48.27 125.52 47.67 125.84 47.14ZM122.04 49.28C122.67 49.28 123.18 49.6 123.25 50.02L123.88 56.88C123.88 57.56 123.06 58.12 122.04 58.12C121.02 58.12 120.21 57.56 120.21 56.88L120.83 50.02C120.9 49.6 121.41 49.28 122.04 49.28ZM125.88 41.46L131.65 37.5C132.25 37.16 133.15 37.56 133.66 38.43C134.17 39.3 134.09 40.26 133.48 40.6L127.09 43.51C126.69 43.66 126.15 43.38 125.84 42.85C125.52 42.32 125.55 41.72 125.88 41.46ZM116.99 43.51L110.6 40.6C110 40.26 109.91 39.3 110.42 38.43C110.93 37.56 111.83 37.16 112.43 37.5L118.2 41.46C118.53 41.72 118.55 42.32 118.24 42.85C117.93 43.38 117.39 43.66 116.99 43.51ZM120.83 39.97L120.21 33.11C120.21 32.43 121.02 31.87 122.04 31.87C123.06 31.87 123.88 32.43 123.88 33.11L123.25 39.97C123.18 40.39 122.67 40.71 122.04 40.71C121.41 40.71 120.9 40.39 120.83 39.97ZM135.22 52.47L135.22 52.29L135.38 52.29C135.44 52.29 135.47 52.33 135.47 52.38C135.47 52.43 135.44 52.47 135.38 52.47L135.22 52.47ZM135.09 52.78C135.09 52.8 135.11 52.81 135.13 52.81L135.2 52.81C135.21 52.81 135.23 52.8 135.23 52.78L135.23 52.58L135.34 52.58L135.43 52.79C135.44 52.8 135.45 52.81 135.46 52.81L135.54 52.81C135.57 52.81 135.58 52.79 135.57 52.77C135.54 52.7 135.51 52.64 135.48 52.57C135.53 52.56 135.61 52.5 135.61 52.38C135.61 52.25 135.5 52.17 135.39 52.17L135.13 52.17C135.11 52.17 135.09 52.19 135.09 52.21L135.09 52.78ZM134.81 52.49C134.81 52.22 135.04 51.99 135.33 51.99C135.61 51.99 135.84 52.21 135.84 52.49C135.84 52.77 135.61 53 135.33 53C135.04 53 134.81 52.77 134.81 52.49ZM134.69 52.49C134.69 52.84 134.97 53.12 135.33 53.12C135.68 53.12 135.97 52.84 135.97 52.49C135.97 52.15 135.68 51.87 135.33 51.87C134.97 51.87 134.69 52.15 134.69 52.49Z" fill="#FFC124" fill-opacity="1.000000" fill-rule="nonzero"/>
		</g>
	</g>
</svg>
